<svg version="1.1" id="Layer_1" xmlns="http://www.w3.org/2000/svg" xmlns:xlink="http://www.w3.org/1999/xlink" x="0px" y="0px"
	 width="100%" viewBox="0 0 138 138" enable-background="new 0 0 138 138" xml:space="preserve">
<path fill="#FEFEFC" opacity="1.000000" stroke="none" 
	d="
M86.000000,139.000000 
	C57.358868,139.000000 29.217735,139.000000 1.038301,139.000000 
	C1.038301,93.067261 1.038301,47.134483 1.038301,1.100851 
	C46.890869,1.100851 92.782036,1.100851 138.836609,1.100851 
	C138.836609,46.999527 138.836609,92.999718 138.836609,139.000000 
	C121.468239,139.000000 103.984123,139.000000 86.000000,139.000000 
M77.065170,116.782928 
	C81.345406,115.535362 85.625648,114.287804 89.896545,113.042961 
	C89.896545,104.872986 89.896545,97.117661 89.896545,89.784813 
	C82.205040,92.070625 74.736801,94.953400 67.000549,96.459930 
	C46.941933,100.366081 28.739298,84.376869 30.486116,64.890358 
	C31.934387,48.734268 45.874626,37.047493 62.985325,37.644699 
	C79.662056,38.226757 92.487808,51.134888 92.686012,67.835579 
	C92.855972,82.155212 92.732735,96.478340 92.738747,110.799919 
	C92.739830,113.395599 92.738899,115.991272 92.738899,118.578339 
	C104.452072,118.578339 115.485390,118.578339 126.770348,118.578339 
	C126.159142,114.219734 125.680176,110.268410 125.041435,106.343086 
	C122.478233,90.591171 121.057137,74.536293 117.043671,59.159855 
	C105.813492,16.134689 54.498966,0.957030 22.980812,30.772228 
	C-2.860376,55.217194 4.415297,98.687332 36.718613,113.663162 
	C49.577511,119.624550 62.737305,119.813263 77.065170,116.782928 
z"/>
<path fill="#E0960B" opacity="1.000000" stroke="none" 
	d="
M76.652534,116.872993 
	C62.737305,119.813263 49.577511,119.624550 36.718613,113.663162 
	C4.415297,98.687332 -2.860376,55.217194 22.980812,30.772228 
	C54.498966,0.957030 105.813492,16.134689 117.043671,59.159855 
	C121.057137,74.536293 122.478233,90.591171 125.041435,106.343086 
	C125.680176,110.268410 126.159142,114.219734 126.770348,118.578339 
	C115.485390,118.578339 104.452072,118.578339 92.738899,118.578339 
	C92.738899,115.991272 92.739830,113.395599 92.738747,110.799919 
	C92.732735,96.478340 92.855972,82.155212 92.686012,67.835579 
	C92.487808,51.134888 79.662056,38.226757 62.985325,37.644699 
	C45.874626,37.047493 31.934387,48.734268 30.486116,64.890358 
	C28.739298,84.376869 46.941933,100.366081 67.000549,96.459930 
	C74.736801,94.953400 82.205040,92.070625 89.896545,89.784813 
	C89.896545,97.117661 89.896545,104.872986 89.896545,113.042961 
	C85.625648,114.287804 81.345406,115.535362 76.652534,116.872993 
z"/>
</svg>